<svg width="365.1" height="82.7" viewBox="0 0 365.1 82.7" fill="none" xmlns="http://www.w3.org/2000/svg">
<svg width="365.1" height="82.7" viewBox="0 0 365.1 82.7" xmlns="http://www.w3.org/2000/svg"><g id="svgGroup" stroke-linecap="round" fill-rule="evenodd" font-size="9pt" stroke="#ffffff" stroke-width="0" fill="#9747ff" style="stroke:#ffffff;stroke-width:0;fill:#9747ff"><path d="M 77.5 9.1 L 80 6.2 A 19.722 19.722 0 0 1 80.636 5.661 Q 81.306 5.114 82.238 4.428 A 66.608 66.608 0 0 1 82.55 4.2 Q 84.2 3 85.9 1.9 Q 87.6 0.8 88.4 0.5 Q 89.604 0.037 90.379 0.003 A 2.744 2.744 0 0 1 90.5 0 Q 91.1 0 91.1 0.3 Q 91.1 0.952 89.712 1.864 A 11.028 11.028 0 0 1 89.5 2 Q 88.5 2.7 87.7 3.55 Q 87.041 4.251 86.653 4.713 A 10.766 10.766 0 0 0 86.5 4.9 Q 85.352 6.508 84.584 7.647 A 56.728 56.728 0 0 0 84.15 8.3 Q 83.39 9.463 82.189 11.266 A 863.51 863.51 0 0 1 81.9 11.7 Q 91.1 17.8 96.9 27.45 A 40.78 40.78 0 0 1 102.529 45.319 A 50.191 50.191 0 0 1 102.7 49.5 Q 102.7 52.1 102.4 54.8 A 30.107 30.107 0 0 1 100.367 63.337 A 27.383 27.383 0 0 1 98.9 66.4 Q 96 71.6 91.35 75.2 Q 86.7 78.8 81.05 80.75 Q 75.4 82.7 69.2 82.7 Q 66.9 82.7 64.6 82.4 A 138.834 138.834 0 0 1 58.002 81.441 Q 54.917 80.911 52.28 80.284 A 61.682 61.682 0 0 1 48.45 79.25 Q 42.1 77.3 37.3 75.2 Q 28.2 82.7 16.9 82.7 Q 14.6 82.7 12.2 82.4 A 25.293 25.293 0 0 1 8.672 81.713 Q 6.894 81.223 5.496 80.489 A 10.407 10.407 0 0 1 2.95 78.65 A 11.664 11.664 0 0 1 1.213 76.475 A 7.92 7.92 0 0 1 0 72.3 A 8.238 8.238 0 0 1 1.679 67.343 A 12.092 12.092 0 0 1 3.25 65.6 Q 6.092 62.977 11.037 62.647 A 22.023 22.023 0 0 1 12.5 62.6 A 23.256 23.256 0 0 1 16.879 63.038 Q 18.96 63.438 21.2 64.2 Q 23.2 64.8 26.15 66.25 Q 29.1 67.7 32 69.2 A 279.707 279.707 0 0 1 33.369 69.913 Q 35.3 70.925 36.5 71.6 Q 40.9 67.3 44.65 61.65 A 137.356 137.356 0 0 0 50.837 51.348 A 153.321 153.321 0 0 0 51.8 49.55 Q 55.2 43.1 58.7 36.5 Q 62.2 29.9 66.05 23.65 Q 69.9 17.4 74.6 12.2 Q 69.4 9 63.15 7.25 Q 56.9 5.5 50.3 5.5 Q 47.8 5.5 45.25 5.8 Q 42.7 6.1 40.1 6.6 A 52.73 52.73 0 0 0 32.143 8.943 A 38.34 38.34 0 0 0 24.4 12.95 Q 18 17.3 14.75 22.45 Q 12.081 26.679 11.604 30.538 A 13.534 13.534 0 0 0 11.5 32.2 A 10.878 10.878 0 0 0 12.118 35.91 A 9.893 9.893 0 0 0 13.3 38.2 A 8.764 8.764 0 0 0 16.386 40.916 A 12.515 12.515 0 0 0 18.8 41.9 Q 20.867 42.513 22.524 42.656 A 11.316 11.316 0 0 0 23.5 42.7 A 13.624 13.624 0 0 0 26.407 42.403 A 10.484 10.484 0 0 0 29.25 41.35 Q 31.7 40 33.4 38 A 20.207 20.207 0 0 0 34.725 36.269 Q 35.472 35.169 35.95 34.1 A 17.532 17.532 0 0 0 36.398 33.007 Q 36.785 31.958 36.881 31.18 A 4.509 4.509 0 0 0 36.9 31 Q 36.9 30.3 37.8 30.3 Q 39.2 30.3 38.9 32 Q 38.4 36 35.9 38.95 Q 33.4 41.9 29.9 43.55 Q 26.4 45.2 22.7 45.2 A 16.002 16.002 0 0 1 19.31 44.823 A 19.518 19.518 0 0 1 17.7 44.4 Q 13.1 42.8 9.95 38.85 A 14.404 14.404 0 0 1 6.812 30.169 A 18.062 18.062 0 0 1 6.8 29.5 A 17.181 17.181 0 0 1 8.187 22.855 A 23.808 23.808 0 0 1 10.35 18.85 A 23.865 23.865 0 0 1 14.27 14.37 Q 16.314 12.521 18.965 10.823 A 48.309 48.309 0 0 1 21.7 9.2 A 43.555 43.555 0 0 1 28.83 6.119 Q 34.619 4.169 42.1 3.1 Q 46.3 2.5 50.6 2.5 Q 57.7 2.5 64.55 4.2 Q 71.4 5.9 77.5 9.1 Z M 67.5 79.7 A 31.539 31.539 0 0 0 75.368 78.755 A 25.994 25.994 0 0 0 81.65 76.25 Q 87.8 72.8 91.6 67.2 Q 95.4 61.6 96.1 55.1 Q 96.4 52.7 96.4 50.3 A 44.288 44.288 0 0 0 94.397 36.834 A 40.153 40.153 0 0 0 91.75 30.45 Q 87.1 21.5 79.5 15.4 Q 75.1 22.3 70.45 30 Q 65.8 37.7 61.1 45.25 A 354.997 354.997 0 0 1 55.323 54.238 A 290.997 290.997 0 0 1 51.95 59.2 Q 47.5 65.6 43.6 69.8 A 12.096 12.096 0 0 0 43.128 70.229 Q 42.65 70.685 42.05 71.333 A 40.63 40.63 0 0 0 41.85 71.55 Q 40.8 72.7 39.7 73.4 A 69.249 69.249 0 0 0 45.061 75.518 A 92.339 92.339 0 0 0 50.4 77.2 A 60.804 60.804 0 0 0 56.052 78.496 Q 59.944 79.206 64.5 79.6 A 19.352 19.352 0 0 0 65.14 79.661 Q 65.455 79.685 65.732 79.695 A 9.645 9.645 0 0 0 66.05 79.7 L 67.5 79.7 Z M 14.7 79.6 A 30.765 30.765 0 0 0 16.376 79.646 Q 20.368 79.646 23.977 78.577 A 24.914 24.914 0 0 0 25 78.25 Q 29.8 76.6 33.9 73.6 Q 30.3 71.9 26.6 70.05 A 75.15 75.15 0 0 0 18.864 66.723 A 81.102 81.102 0 0 0 18.8 66.7 A 20.347 20.347 0 0 0 16.744 66.126 Q 15.726 65.902 14.811 65.832 A 10.637 10.637 0 0 0 14 65.8 Q 11.253 65.8 9.498 66.93 A 5.694 5.694 0 0 0 8.4 67.85 A 7.546 7.546 0 0 0 7.11 69.712 A 6.141 6.141 0 0 0 6.5 72.4 A 6.56 6.56 0 0 0 8.023 76.6 A 8.868 8.868 0 0 0 8.6 77.25 Q 10.462 79.156 13.818 79.53 A 14.557 14.557 0 0 0 14.7 79.6 Z" id="0" vector-effect="non-scaling-stroke"/><path d="M 113.1 49.4 L 111.9 52.7 Q 111.058 55.15 109.717 58.245 A 125.811 125.811 0 0 1 108.85 60.2 Q 106.9 64.5 104.55 68.5 A 38.496 38.496 0 0 1 102.616 71.486 Q 101.184 73.475 99.7 74.9 A 0.675 0.675 0 0 1 99.219 75.1 A 0.886 0.886 0 0 1 99.2 75.1 A 0.489 0.489 0 0 1 98.777 74.877 Q 98.719 74.794 98.677 74.68 A 1.291 1.291 0 0 1 98.65 74.6 Q 98.509 74.13 99.03 73.484 A 3.632 3.632 0 0 1 99.1 73.4 A 69.686 69.686 0 0 0 104.909 64.191 A 79.466 79.466 0 0 0 106.1 61.85 Q 109.2 55.5 111.35 48.9 Q 113.5 42.3 114.5 36.7 A 6.594 6.594 0 0 1 114.736 35.783 Q 114.893 35.324 115.109 34.966 A 2.863 2.863 0 0 1 115.6 34.35 A 3.165 3.165 0 0 1 116.208 33.897 A 2.196 2.196 0 0 1 117.3 33.6 A 2.749 2.749 0 0 1 118.847 34.088 Q 119.232 34.345 119.596 34.736 A 5.492 5.492 0 0 1 119.7 34.85 Q 120.628 35.905 120.773 37.707 A 8.645 8.645 0 0 1 120.8 38.4 Q 120.8 38.8 120.75 39.3 Q 120.7 39.8 120.6 40.3 A 6.39 6.39 0 0 1 119.619 42.645 Q 119.073 43.47 118.25 44.25 Q 116.643 45.775 115.545 46.654 A 17.702 17.702 0 0 1 115.1 47 Q 116.1 47.1 117.2 47.15 Q 118.3 47.2 119.6 47.2 Q 124.3 47.2 128.9 46.6 A 6.806 6.806 0 0 1 128.987 46.881 Q 129.067 47.16 129.09 47.354 A 1.235 1.235 0 0 1 129.1 47.5 Q 129.1 48.773 128.381 50.718 A 19.73 19.73 0 0 1 128.35 50.8 Q 127.6 52.8 126.8 54.4 A 23.217 23.217 0 0 1 126.569 54.902 Q 126.224 55.628 125.605 56.853 A 220.39 220.39 0 0 1 125.2 57.65 Q 124 60 122.6 62.95 A 53.261 53.261 0 0 0 120.753 67.319 A 47.049 47.049 0 0 0 120.25 68.75 A 23.491 23.491 0 0 0 119.709 70.609 Q 119.485 71.527 119.384 72.335 A 10.187 10.187 0 0 0 119.3 73.6 A 4.956 4.956 0 0 0 119.383 74.549 Q 119.706 76.2 121.3 76.2 A 2.821 2.821 0 0 0 122.467 75.926 Q 123.337 75.531 124.295 74.569 A 11.8 11.8 0 0 0 124.6 74.25 A 25.837 25.837 0 0 0 126.332 72.15 Q 127.133 71.073 127.924 69.814 A 42.63 42.63 0 0 0 128.15 69.45 A 101.378 101.378 0 0 0 130.606 65.231 A 90.841 90.841 0 0 0 131.35 63.85 Q 132.8 61.1 133.6 59.5 Q 134 58.5 134.7 58.5 Q 135.075 58.5 135.098 59.115 A 2.227 2.227 0 0 1 135.1 59.2 A 1.59 1.59 0 0 1 135.077 59.453 Q 135.017 59.822 134.8 60.4 A 152.254 152.254 0 0 1 133.761 62.527 Q 133.044 63.969 132.2 65.6 Q 130.7 68.5 128.85 71.3 A 29.964 29.964 0 0 1 126.42 74.507 A 24.994 24.994 0 0 1 124.85 76.15 A 11.569 11.569 0 0 1 122.685 77.796 A 9.205 9.205 0 0 1 120.2 78.8 Q 119.91 78.897 119.154 78.9 A 12.398 12.398 0 0 1 119.1 78.9 A 5.087 5.087 0 0 1 116.963 78.41 Q 116.261 78.088 115.56 77.555 A 9.612 9.612 0 0 1 115.3 77.35 A 4.745 4.745 0 0 1 113.832 75.193 Q 113.548 74.389 113.451 73.394 A 11.246 11.246 0 0 1 113.4 72.3 A 13.649 13.649 0 0 1 113.631 69.88 Q 113.847 68.686 114.263 67.369 A 27.103 27.103 0 0 1 114.7 66.1 Q 115.9 62.7 117.95 59.5 A 72.997 72.997 0 0 0 119.119 57.617 Q 120.159 55.88 120.763 54.596 A 18.671 18.671 0 0 0 120.9 54.3 Q 121.2 53.5 121.2 52.9 Q 121.2 51.205 119.206 50.397 A 6.297 6.297 0 0 0 118.95 50.3 A 13.098 13.098 0 0 0 117.073 49.798 Q 116.104 49.609 114.968 49.507 A 30.147 30.147 0 0 0 113.1 49.4 Z" id="1" vector-effect="non-scaling-stroke"/><path d="M 130.9 65.8 L 137.6 48.7 Q 137.9 47.9 137.9 47.3 A 3.378 3.378 0 0 0 137.763 46.322 A 2.88 2.88 0 0 0 137.4 45.55 L 136.7 44.5 L 142.2 44.3 A 8.467 8.467 0 0 1 142.466 44.286 Q 143.716 44.242 144.31 44.623 A 1.366 1.366 0 0 1 144.35 44.65 Q 144.795 44.958 144.936 45.337 A 1.037 1.037 0 0 1 145 45.7 Q 145 46.3 144.3 47.9 L 136 67.4 L 135.45 68.65 Q 134.982 69.714 134.84 70.162 A 2.347 2.347 0 0 0 134.8 70.3 A 192.59 192.59 0 0 1 134.695 70.824 Q 134.489 71.836 134.406 72.175 A 5.285 5.285 0 0 1 134.4 72.2 A 11.198 11.198 0 0 0 134.366 72.339 Q 134.3 72.619 134.3 72.7 L 134.3 73.5 A 4.319 4.319 0 0 0 134.424 74.561 A 3.311 3.311 0 0 0 134.95 75.7 A 1.987 1.987 0 0 0 135.909 76.402 Q 136.45 76.6 137.2 76.6 A 4.066 4.066 0 0 0 138.062 76.501 Q 138.478 76.411 138.936 76.237 A 8.65 8.65 0 0 0 139.5 76 Q 140.721 75.436 141.324 74.873 A 3.068 3.068 0 0 0 141.4 74.8 A 26.996 26.996 0 0 0 143.5 72.313 Q 144.486 71.003 145.463 69.432 A 51.31 51.31 0 0 0 146.35 67.95 Q 148.8 63.7 150.9 59.5 Q 151.3 58.5 151.9 58.5 Q 152.4 58.5 152.4 59.2 A 1.59 1.59 0 0 1 152.377 59.453 Q 152.317 59.822 152.1 60.4 Q 151.112 62.475 149.636 65.526 A 1624.635 1624.635 0 0 1 149.6 65.6 A 49.722 49.722 0 0 1 146.554 70.987 A 55.017 55.017 0 0 1 146.05 71.75 A 26.718 26.718 0 0 1 143.773 74.694 A 20.907 20.907 0 0 1 141.6 76.8 A 9.019 9.019 0 0 1 139.303 78.219 A 7.466 7.466 0 0 1 136.4 78.8 A 9.94 9.94 0 0 1 134.505 78.632 Q 133.462 78.429 132.671 77.981 A 4.429 4.429 0 0 1 131.2 76.65 Q 129.7 74.5 129.7 71.7 A 13.74 13.74 0 0 1 130.008 68.844 A 15.172 15.172 0 0 1 130.05 68.65 A 22.142 22.142 0 0 1 130.546 66.81 A 18.168 18.168 0 0 1 130.9 65.8 Z M 144.5 38.2 Q 143 38.2 142.05 37.15 Q 141.1 36.1 141.1 34.6 A 4.308 4.308 0 0 1 142.375 31.522 A 5.811 5.811 0 0 1 142.6 31.3 A 5.609 5.609 0 0 1 143.894 30.381 A 4.392 4.392 0 0 1 145.9 29.9 A 4.17 4.17 0 0 1 147.101 30.065 A 3.28 3.28 0 0 1 148.5 30.9 A 3.27 3.27 0 0 1 149.5 33.256 A 3.89 3.89 0 0 1 149.5 33.3 A 4.532 4.532 0 0 1 148.432 36.222 A 6.167 6.167 0 0 1 148 36.7 A 5.227 5.227 0 0 1 146.457 37.789 A 4.698 4.698 0 0 1 144.5 38.2 Z" id="2" vector-effect="non-scaling-stroke"/><path d="M 178.4 16.7 L 178.9 16.7 A 6.492 6.492 0 0 1 179.735 16.757 Q 180.303 16.831 180.95 17 A 5.607 5.607 0 0 0 181.791 17.155 Q 182.475 17.225 183.1 17.1 Q 181.8 18.5 179.15 22.05 A 200.003 200.003 0 0 0 176.716 25.386 Q 175.488 27.105 174.152 29.038 A 345.695 345.695 0 0 0 173.25 30.35 A 254.181 254.181 0 0 0 168.375 37.756 A 282.321 282.321 0 0 0 166.75 40.35 Q 163.5 45.6 161 50.6 A 80.319 80.319 0 0 0 157.221 59.498 A 89.501 89.501 0 0 0 156.75 60.85 A 41.732 41.732 0 0 0 155.623 64.748 Q 155.171 66.679 155.002 68.404 A 20.442 20.442 0 0 0 154.9 70.4 Q 154.9 72.8 155.7 74.4 A 3.604 3.604 0 0 0 157.998 76.298 A 5.028 5.028 0 0 0 158.4 76.4 A 3.044 3.044 0 0 0 159.052 76.469 Q 162.132 76.469 167 70.7 Q 169.084 68.22 171.167 64.804 A 65.875 65.875 0 0 0 171.2 64.75 A 52.457 52.457 0 0 0 172.971 61.615 Q 173.751 60.109 174.337 58.7 A 31.966 31.966 0 0 0 174.5 58.3 A 24.386 24.386 0 0 0 175.599 55.173 Q 176.2 52.963 176.2 51 A 8.12 8.12 0 0 0 176.039 49.332 Q 175.751 47.961 174.95 47 A 3.275 3.275 0 0 0 173.336 45.964 Q 172.284 45.647 170.8 45.8 L 170.4 45.8 A 4.84 4.84 0 0 1 169.788 45.765 Q 169.146 45.683 168.851 45.407 A 0.792 0.792 0 0 1 168.6 44.8 Q 168.6 44.419 169.1 44.038 A 2.73 2.73 0 0 1 169.15 44 A 1.868 1.868 0 0 1 169.706 43.73 Q 170.13 43.6 170.7 43.6 A 4.142 4.142 0 0 1 171.053 43.616 A 5.3 5.3 0 0 1 171.35 43.65 A 6.733 6.733 0 0 1 171.76 43.722 A 8.476 8.476 0 0 1 172.1 43.8 Q 175.654 44.353 177.618 46.31 A 7.248 7.248 0 0 1 178.55 47.45 A 11.823 11.823 0 0 1 180.487 53.597 A 14.426 14.426 0 0 1 180.5 54.2 Q 180.5 55 180.4 55.95 Q 180.3 56.9 180.1 58 A 27.106 27.106 0 0 1 178.514 63.184 A 34.006 34.006 0 0 1 177 66.35 Q 174.7 70.6 171.35 73.8 A 18.122 18.122 0 0 1 166.929 76.95 A 16.107 16.107 0 0 1 163.9 78.1 Q 162.2 78.5 160.75 78.7 Q 159.3 78.9 158.1 78.9 A 13.405 13.405 0 0 1 155.741 78.706 Q 153.177 78.247 151.7 76.7 A 7.52 7.52 0 0 1 149.618 71.809 A 9.908 9.908 0 0 1 149.6 71.2 Q 149.6 69.6 150 68.1 Q 150.516 66.123 151.437 63.741 A 59.09 59.09 0 0 1 151.75 62.95 Q 152.9 60.1 154.4 57.1 A 243.654 243.654 0 0 1 151.866 61.898 Q 150.594 64.239 149.422 66.252 A 119.791 119.791 0 0 1 148.05 68.55 Q 145.358 72.942 143.871 74.435 A 6.575 6.575 0 0 1 143.7 74.6 Q 143.499 74.801 143.299 74.867 A 0.629 0.629 0 0 1 143.1 74.9 A 0.72 0.72 0 0 1 142.902 74.875 Q 142.6 74.789 142.6 74.4 A 1.159 1.159 0 0 1 142.706 73.925 Q 142.778 73.763 142.9 73.6 Q 145 70.8 147.75 65.9 Q 150.5 61 153.6 54.95 Q 156.7 48.9 159.9 42.7 Q 163.1 36.5 166.15 31 Q 168.485 26.789 170.498 23.575 A 99.242 99.242 0 0 1 171.7 21.7 Q 173.458 19.064 175.025 17.905 A 6.933 6.933 0 0 1 175.1 17.85 A 6.513 6.513 0 0 1 176.558 17.049 A 5.089 5.089 0 0 1 178.4 16.7 Z" id="3" vector-effect="non-scaling-stroke"/><path d="M 213.1 16.7 L 213.6 16.7 A 6.492 6.492 0 0 1 214.435 16.757 Q 215.003 16.831 215.65 17 A 5.607 5.607 0 0 0 216.491 17.155 Q 217.175 17.225 217.8 17.1 Q 216.5 18.5 213.85 22.05 A 200.003 200.003 0 0 0 211.416 25.386 Q 210.188 27.105 208.852 29.038 A 345.695 345.695 0 0 0 207.95 30.35 A 254.181 254.181 0 0 0 203.075 37.756 A 282.321 282.321 0 0 0 201.45 40.35 Q 198.2 45.6 195.7 50.6 A 80.319 80.319 0 0 0 191.921 59.498 A 89.501 89.501 0 0 0 191.45 60.85 A 41.732 41.732 0 0 0 190.323 64.748 Q 189.871 66.679 189.702 68.404 A 20.442 20.442 0 0 0 189.6 70.4 Q 189.6 72.8 190.4 74.4 A 3.604 3.604 0 0 0 192.698 76.298 A 5.028 5.028 0 0 0 193.1 76.4 A 3.044 3.044 0 0 0 193.752 76.469 Q 196.832 76.469 201.7 70.7 Q 203.784 68.22 205.867 64.804 A 65.875 65.875 0 0 0 205.9 64.75 A 52.457 52.457 0 0 0 207.671 61.615 Q 208.451 60.109 209.037 58.7 A 31.966 31.966 0 0 0 209.2 58.3 A 24.386 24.386 0 0 0 210.299 55.173 Q 210.9 52.963 210.9 51 A 8.12 8.12 0 0 0 210.739 49.332 Q 210.451 47.961 209.65 47 A 3.275 3.275 0 0 0 208.036 45.964 Q 206.984 45.647 205.5 45.8 L 205.1 45.8 A 4.84 4.84 0 0 1 204.488 45.765 Q 203.846 45.683 203.551 45.407 A 0.792 0.792 0 0 1 203.3 44.8 Q 203.3 44.419 203.8 44.038 A 2.73 2.73 0 0 1 203.85 44 A 1.868 1.868 0 0 1 204.406 43.73 Q 204.83 43.6 205.4 43.6 A 4.142 4.142 0 0 1 205.753 43.616 A 5.3 5.3 0 0 1 206.05 43.65 A 6.733 6.733 0 0 1 206.46 43.722 A 8.476 8.476 0 0 1 206.8 43.8 Q 210.354 44.353 212.318 46.31 A 7.248 7.248 0 0 1 213.25 47.45 A 11.823 11.823 0 0 1 215.187 53.597 A 14.426 14.426 0 0 1 215.2 54.2 Q 215.2 55 215.1 55.95 Q 215 56.9 214.8 58 A 27.106 27.106 0 0 1 213.214 63.184 A 34.006 34.006 0 0 1 211.7 66.35 Q 209.4 70.6 206.05 73.8 A 18.122 18.122 0 0 1 201.629 76.95 A 16.107 16.107 0 0 1 198.6 78.1 Q 196.9 78.5 195.45 78.7 Q 194 78.9 192.8 78.9 A 13.405 13.405 0 0 1 190.441 78.706 Q 187.877 78.247 186.4 76.7 A 7.52 7.52 0 0 1 184.318 71.809 A 9.908 9.908 0 0 1 184.3 71.2 Q 184.3 69.6 184.7 68.1 Q 185.216 66.123 186.137 63.741 A 59.09 59.09 0 0 1 186.45 62.95 Q 187.6 60.1 189.1 57.1 A 243.654 243.654 0 0 1 186.566 61.898 Q 185.294 64.239 184.122 66.252 A 119.791 119.791 0 0 1 182.75 68.55 Q 180.058 72.942 178.571 74.435 A 6.575 6.575 0 0 1 178.4 74.6 Q 178.199 74.801 177.999 74.867 A 0.629 0.629 0 0 1 177.8 74.9 A 0.72 0.72 0 0 1 177.602 74.875 Q 177.3 74.789 177.3 74.4 A 1.159 1.159 0 0 1 177.406 73.925 Q 177.478 73.763 177.6 73.6 Q 179.7 70.8 182.45 65.9 Q 185.2 61 188.3 54.95 Q 191.4 48.9 194.6 42.7 Q 197.8 36.5 200.85 31 Q 203.185 26.789 205.198 23.575 A 99.242 99.242 0 0 1 206.4 21.7 Q 208.158 19.064 209.725 17.905 A 6.933 6.933 0 0 1 209.8 17.85 A 6.513 6.513 0 0 1 211.258 17.049 A 5.089 5.089 0 0 1 213.1 16.7 Z" id="4" vector-effect="non-scaling-stroke"/><path d="M 223.314 78.95 A 12.198 12.198 0 0 0 225.3 79.1 Q 229.1 79.1 232.05 76.95 Q 235 74.8 237.15 71.65 A 48.417 48.417 0 0 0 238.181 70.075 A 41.836 41.836 0 0 0 240.75 65.35 Q 242.2 62.2 243.1 60.2 Q 243.259 59.881 243.334 59.591 A 1.97 1.97 0 0 0 243.4 59.1 A 1.292 1.292 0 0 0 243.397 59.017 Q 243.373 58.637 243.116 58.536 A 0.589 0.589 0 0 0 242.9 58.5 A 0.892 0.892 0 0 0 242.622 58.545 Q 242.079 58.722 241.6 59.6 A 118.68 118.68 0 0 1 241.079 60.628 Q 240.143 62.455 238.65 65.25 Q 236.7 68.9 234.3 72.4 A 18.518 18.518 0 0 1 234.099 72.671 Q 232.588 74.672 230.9 75.75 A 9.882 9.882 0 0 1 230.45 76.022 Q 228.898 76.9 227.5 76.9 A 3.593 3.593 0 0 1 225.465 76.295 A 4.549 4.549 0 0 1 224.45 75.35 A 4.822 4.822 0 0 1 223.688 73.97 Q 223.432 73.27 223.31 72.404 A 12.274 12.274 0 0 1 223.2 70.7 A 14.107 14.107 0 0 1 223.239 69.677 Q 223.296 68.891 223.437 67.994 A 30.738 30.738 0 0 1 223.8 66.1 Q 224.3 64.3 224.95 62.55 A 78.719 78.719 0 0 0 225.332 61.5 Q 225.511 60.997 225.665 60.538 A 42.418 42.418 0 0 0 226 59.5 A 79.19 79.19 0 0 0 228.901 56.696 A 68.286 68.286 0 0 0 238.25 44.9 Q 243.1 37.1 246.6 29.3 Q 247.9 26.5 248.45 24.3 Q 248.794 22.925 248.923 21.784 A 11.472 11.472 0 0 0 249 20.5 A 9.14 9.14 0 0 0 248.935 19.378 Q 248.855 18.728 248.674 18.2 A 3.631 3.631 0 0 0 248.05 17.05 A 3.04 3.04 0 0 0 246.693 16.09 A 3.592 3.592 0 0 0 245.5 15.9 A 4.21 4.21 0 0 0 245.293 15.905 Q 243.364 16 240.85 17.85 A 13.319 13.319 0 0 0 239.727 18.778 Q 238.671 19.75 237.674 21.049 A 26.298 26.298 0 0 0 235.9 23.7 Q 233 28.6 230.05 34.75 Q 227.1 40.9 224.65 47.25 A 160.549 160.549 0 0 0 222.669 52.663 A 127.164 127.164 0 0 0 220.6 59.2 A 110.385 110.385 0 0 0 220.143 60.745 Q 219.905 61.571 219.647 62.505 A 233.348 233.348 0 0 0 219 64.9 Q 218.1 68.3 218.1 71.5 A 11.551 11.551 0 0 0 218.206 73.087 A 8.885 8.885 0 0 0 219.6 76.85 A 4.42 4.42 0 0 0 221.509 78.425 Q 222.298 78.782 223.314 78.95 Z M 226.8 56.3 A 63.994 63.994 0 0 0 231.222 51.226 A 78.734 78.734 0 0 0 233.8 47.75 Q 237.2 42.9 240.15 37.65 A 113.456 113.456 0 0 0 243.168 31.918 A 88.564 88.564 0 0 0 245.1 27.7 A 17.311 17.311 0 0 0 245.944 25.496 A 20.615 20.615 0 0 0 246.25 24.4 A 19.404 19.404 0 0 0 246.506 23.233 Q 246.609 22.678 246.657 22.195 A 8.021 8.021 0 0 0 246.7 21.4 A 4.204 4.204 0 0 0 246.676 20.933 Q 246.571 20 246 20 Q 245.628 20 244.912 20.647 A 8.12 8.12 0 0 0 244.8 20.75 A 8.378 8.378 0 0 0 244.31 21.255 Q 243.846 21.771 243.259 22.544 A 39.344 39.344 0 0 0 242.7 23.3 Q 240.8 25.8 238.55 30.1 A 226.122 226.122 0 0 0 235.433 36.296 A 266.031 266.031 0 0 0 234 39.3 Q 231.7 44.2 229.8 48.75 Q 227.9 53.3 226.8 56.3 Z" id="5" vector-effect="non-scaling-stroke"/><path d="M 248.7 79.2 Q 245 79.2 242.05 76.8 A 7.63 7.63 0 0 1 239.498 72.761 Q 239.15 71.482 239.106 69.945 A 15.717 15.717 0 0 1 239.1 69.5 Q 239.1 65.132 241.173 60.151 A 35.085 35.085 0 0 1 241.3 59.85 Q 243.5 54.7 246.9 50.8 A 27.275 27.275 0 0 1 252.842 45.551 A 25.658 25.658 0 0 1 253.4 45.2 A 17.553 17.553 0 0 1 256.044 43.859 Q 257.594 43.242 259.063 43.068 A 9.679 9.679 0 0 1 260.2 43 A 6.758 6.758 0 0 1 262.28 43.309 A 5.814 5.814 0 0 1 264 44.2 A 4.229 4.229 0 0 1 265.666 47.247 A 6.17 6.17 0 0 1 265.7 47.9 A 7.802 7.802 0 0 1 265.336 50.183 Q 265.044 51.139 264.517 52.157 A 16.581 16.581 0 0 1 263.8 53.4 A 18.524 18.524 0 0 1 261.243 56.562 A 25.416 25.416 0 0 1 258.4 59 A 15.287 15.287 0 0 1 256.963 59.927 Q 255.912 60.53 254.6 61.1 Q 252.3 62.1 250 62.75 Q 247.713 63.396 246.217 63.4 A 6.934 6.934 0 0 1 246.2 63.4 Q 245.7 64.6 245.25 66.6 Q 244.8 68.6 244.8 70.7 A 10.768 10.768 0 0 0 245.116 73.354 A 9.132 9.132 0 0 0 245.8 75.2 A 3.427 3.427 0 0 0 248.283 77.081 A 5.826 5.826 0 0 0 249.5 77.2 Q 252.8 77.2 255.5 75.3 A 20.669 20.669 0 0 0 259.867 71.119 A 23.539 23.539 0 0 0 260.3 70.55 Q 262.4 67.7 263.85 64.8 Q 265.283 61.935 266.178 59.948 A 73.232 73.232 0 0 0 266.2 59.9 A 3.877 3.877 0 0 1 266.503 59.321 Q 267.034 58.5 267.8 58.5 A 0.72 0.72 0 0 1 267.998 58.525 Q 268.3 58.611 268.3 59 A 1.396 1.396 0 0 1 268.265 59.299 Q 268.197 59.606 268 60 Q 266.6 63 265 66.35 Q 263.4 69.7 261.2 72.65 Q 259 75.6 255.95 77.4 A 12.763 12.763 0 0 1 251.57 78.968 A 17.035 17.035 0 0 1 248.7 79.2 Z M 246.9 61.6 Q 248.3 61.6 251.6 60.55 Q 254.9 59.5 257.6 57.2 A 18.501 18.501 0 0 0 260.264 54.31 A 15.566 15.566 0 0 0 261.6 52.15 A 17.813 17.813 0 0 0 262.335 50.524 Q 263 48.81 263 47.5 A 4.456 4.456 0 0 0 262.936 46.711 Q 262.681 45.3 261.4 45.3 Q 260.2 45.3 258.1 46.9 A 17.151 17.151 0 0 0 256.765 48.044 Q 255.475 49.257 253.895 51.107 A 69.25 69.25 0 0 0 252.9 52.3 A 50.388 50.388 0 0 0 249.728 56.806 A 55.924 55.924 0 0 0 249.3 57.5 Q 247.6 60.3 246.9 61.6 Z" id="6" vector-effect="non-scaling-stroke"/><path d="M 277.1 44.2 L 283.3 44.2 Q 281.6 45.5 280.25 47.05 Q 278.9 48.6 276.9 52.7 L 276.2 54.1 Q 275.5 55.5 274.45 57.65 Q 273.4 59.8 272.35 62 Q 271.306 64.187 270.608 65.682 A 208.92 208.92 0 0 0 270.6 65.7 A 46.378 46.378 0 0 0 269.907 67.261 Q 269.181 68.99 268.9 70.15 Q 268.5 71.8 268.5 73.2 Q 268.5 76.5 270.7 76.5 A 3.909 3.909 0 0 0 272.298 76.119 Q 273.648 75.512 275.246 73.939 A 24.145 24.145 0 0 0 276.5 72.6 Q 279.3 69.3 282 64.7 Q 284.7 60.1 287.15 55.2 A 1154.438 1154.438 0 0 0 289.326 50.826 Q 290.491 48.472 291.5 46.4 A 3.731 3.731 0 0 1 294.143 44.329 A 5.769 5.769 0 0 1 295.4 44.2 L 300.9 44.2 Q 299.4 45.4 298.4 46.45 A 9.964 9.964 0 0 0 297.565 47.461 Q 296.999 48.238 296.45 49.25 Q 295.723 50.59 294.614 52.78 A 324.893 324.893 0 0 0 293.9 54.2 Q 292.6 56.9 291.15 59.95 Q 289.7 63 288.6 65.7 A 38.103 38.103 0 0 0 287.991 67.29 Q 287.406 68.931 287.2 70.1 A 33.487 33.487 0 0 1 287.15 70.569 Q 287.075 71.225 287 71.6 Q 286.9 72.1 286.9 72.7 Q 286.9 74.6 287.55 75.4 A 2.435 2.435 0 0 0 288.049 75.872 A 1.804 1.804 0 0 0 289.1 76.2 Q 290.926 76.2 292.78 74.637 A 12.231 12.231 0 0 0 293.95 73.5 Q 296.362 70.842 298.58 67.022 A 52.232 52.232 0 0 0 298.65 66.9 A 98.24 98.24 0 0 0 300.976 62.639 A 77.58 77.58 0 0 0 302.5 59.5 A 5.536 5.536 0 0 1 302.74 59.099 Q 303.156 58.469 303.521 58.407 A 0.471 0.471 0 0 1 303.6 58.4 Q 304.2 58.4 304.2 59.1 A 1.593 1.593 0 0 1 304.146 59.494 Q 304.055 59.851 303.808 60.286 A 5.151 5.151 0 0 1 303.8 60.3 A 104.761 104.761 0 0 1 302.742 62.534 Q 302.185 63.676 301.54 64.942 A 187.472 187.472 0 0 1 301.1 65.8 Q 299.5 68.9 297.5 71.9 A 24.618 24.618 0 0 1 295.193 74.867 A 19.534 19.534 0 0 1 293.1 76.85 A 9.006 9.006 0 0 1 290.701 78.274 A 7.629 7.629 0 0 1 287.9 78.8 Q 285.4 78.8 283.8 76.95 A 6.07 6.07 0 0 1 282.606 74.733 Q 282.2 73.413 282.2 71.7 Q 282.2 69 283.2 65.9 A 59.81 59.81 0 0 1 280.107 70.775 A 67.139 67.139 0 0 1 279.3 71.9 A 27.777 27.777 0 0 1 276.804 74.867 A 21.831 21.831 0 0 1 274.6 76.85 Q 272.369 78.59 270.139 78.777 A 6.43 6.43 0 0 1 269.6 78.8 A 6.097 6.097 0 0 1 268.712 78.73 Q 268.266 78.664 267.764 78.536 A 13.531 13.531 0 0 1 266.95 78.3 A 5.773 5.773 0 0 1 264.553 76.784 A 7.056 7.056 0 0 1 264.25 76.45 A 4.242 4.242 0 0 1 263.484 75.071 Q 263.268 74.446 263.174 73.679 A 10.473 10.473 0 0 1 263.1 72.4 A 10.947 10.947 0 0 1 264.273 67.503 A 12.71 12.71 0 0 1 264.35 67.35 Q 265.6 64.9 266.7 62.6 A 1.048 1.048 0 0 1 266.408 62.556 Q 266.236 62.506 266.05 62.4 Q 265.7 62.2 265.7 61.8 A 1.703 1.703 0 0 1 265.817 61.188 A 2.091 2.091 0 0 1 265.9 61 Q 266.3 60.2 266.8 59.3 Q 267.3 58.4 267.7 57.4 Q 269.2 54.3 270.7 51.45 A 345.039 345.039 0 0 0 271.936 49.081 Q 272.495 47.998 272.983 47.032 A 192.341 192.341 0 0 0 273.3 46.4 Q 274.231 44.539 276.306 44.252 A 5.802 5.802 0 0 1 277.1 44.2 Z" id="7" vector-effect="non-scaling-stroke"/><path d="M 316.4 39 L 317.4 39 Q 318.2 39 318.85 39.1 Q 319.5 39.2 320.2 39.5 A 2.461 2.461 0 0 1 320.726 39.816 A 1.452 1.452 0 0 1 321.3 41 Q 321.3 41.6 320.6 41.6 Q 320.346 41.6 319.949 41.385 A 3.862 3.862 0 0 1 319.8 41.3 A 8.084 8.084 0 0 0 319.01 41.015 Q 318.594 40.891 318.221 40.838 A 3.742 3.742 0 0 0 317.7 40.8 Q 317.1 40.8 316.6 41.1 A 6.157 6.157 0 0 0 315.04 42.246 A 5.238 5.238 0 0 0 313.95 43.9 Q 313.2 45.7 313.2 47.7 Q 313.2 49.3 313.55 50.95 Q 313.9 52.6 314.4 53.9 Q 315.5 56.7 316.75 59.4 Q 318 62.1 318 65.2 A 10.306 10.306 0 0 1 317.468 68.387 Q 316.969 69.927 316 71.55 A 16.223 16.223 0 0 1 311.888 76.207 A 15.567 15.567 0 0 1 310.9 76.9 L 311.6 77 Q 312.083 77.097 312.286 77.1 A 0.865 0.865 0 0 0 312.3 77.1 L 312.6 77.1 A 7.71 7.71 0 0 0 316.693 75.914 A 9.338 9.338 0 0 0 316.95 75.75 Q 319 74.4 320.6 72.4 Q 322.165 70.444 324.159 66.959 A 84.482 84.482 0 0 0 324.25 66.8 A 114.079 114.079 0 0 0 327.723 60.194 A 126.109 126.109 0 0 0 328.2 59.2 A 1.537 1.537 0 0 1 328.364 58.973 Q 328.465 58.858 328.577 58.791 A 0.62 0.62 0 0 1 328.9 58.7 A 1.129 1.129 0 0 1 329.208 58.74 A 0.794 0.794 0 0 1 329.65 59.05 A 0.731 0.731 0 0 1 329.789 59.485 Q 329.789 59.678 329.7 59.9 Q 328.4 62.7 326.75 65.95 Q 325.1 69.2 323 72.15 Q 320.9 75.1 318.15 76.95 Q 315.4 78.8 312 78.8 A 14.389 14.389 0 0 1 310.961 78.761 A 17.328 17.328 0 0 1 310.3 78.7 Q 309.4 78.6 308.5 78.3 Q 307.5 78.7 306.45 78.95 Q 305.4 79.2 304.5 79.2 A 14.77 14.77 0 0 1 302.001 79.004 Q 300.702 78.78 299.688 78.302 A 5.947 5.947 0 0 1 297.55 76.65 A 10.06 10.06 0 0 1 296.185 74.454 A 7.663 7.663 0 0 1 295.5 71.3 Q 295.5 69 296.65 67.1 A 5.857 5.857 0 0 1 297.332 66.174 Q 297.777 65.688 298.276 65.421 A 2.715 2.715 0 0 1 299.4 65.1 Q 301.4 61.2 303.75 56.6 A 277.19 277.19 0 0 0 307.078 49.869 A 243.62 243.62 0 0 0 308.1 47.7 A 29.368 29.368 0 0 1 311.124 42.778 A 32.942 32.942 0 0 1 311.65 42.1 A 10.756 10.756 0 0 1 313.145 40.546 Q 314.171 39.687 315.285 39.285 A 5.938 5.938 0 0 1 316.4 39 Z M 307.5 76.2 A 9.501 9.501 0 0 0 308.921 74.726 Q 309.519 73.965 310.065 73.009 A 18.657 18.657 0 0 0 310.55 72.1 Q 311.9 69.4 311.9 65 Q 311.9 61.1 311.1 56.7 A 55.617 55.617 0 0 1 310.557 53.072 Q 310.3 50.826 310.3 48.9 A 16.79 16.79 0 0 1 310.311 48.277 Q 310.323 47.942 310.35 47.65 Q 310.4 47.1 310.5 46.6 A 2623.965 2623.965 0 0 0 309.286 49.125 Q 308.664 50.421 307.97 51.868 A 4648.965 4648.965 0 0 0 307.5 52.85 Q 305.8 56.4 304.1 59.7 Q 302.931 61.969 301.999 63.765 A 848.21 848.21 0 0 1 301.2 65.3 L 301.75 65.35 A 1.135 1.135 0 0 1 302.255 65.529 Q 302.421 65.633 302.582 65.797 A 2.781 2.781 0 0 1 302.8 66.05 Q 303.3 66.7 303.2 68.6 Q 303.1 71.1 304.35 73.25 A 8.219 8.219 0 0 0 305.473 74.774 A 5.957 5.957 0 0 0 307.5 76.2 Z M 303.7 77.6 A 4.179 4.179 0 0 0 304.36 77.55 A 3.394 3.394 0 0 0 304.8 77.45 A 24.42 24.42 0 0 1 305.247 77.32 Q 305.457 77.262 305.646 77.214 A 14.397 14.397 0 0 1 305.7 77.2 A 9.516 9.516 0 0 1 303.962 75.532 A 12.232 12.232 0 0 1 303.05 74.25 Q 302.054 72.648 301.771 70.258 A 15.484 15.484 0 0 1 301.7 69.5 A 7.352 7.352 0 0 0 300.586 70.999 A 5.314 5.314 0 0 0 299.9 73.6 Q 299.9 75.2 300.9 76.4 A 3.26 3.26 0 0 0 303.002 77.551 A 4.741 4.741 0 0 0 303.7 77.6 Z" id="8" vector-effect="non-scaling-stroke"/><path d="M 325.432 79.936 A 3.156 3.156 0 0 0 326.1 80 A 7.165 7.165 0 0 0 329.85 78.95 A 8.289 8.289 0 0 1 330.179 78.762 A 6.905 6.905 0 0 1 333.5 77.9 Q 335.8 77.9 339.1 78.6 Q 342.4 79.3 346.7 79.5 Q 349.091 79.563 351.264 78.359 A 12.152 12.152 0 0 0 353.75 76.5 A 24.303 24.303 0 0 0 354.431 75.824 Q 357.295 72.867 359.8 68.35 Q 362.6 63.3 364.9 57.8 A 1.826 1.826 0 0 0 365.037 57.431 A 2.154 2.154 0 0 0 365.1 56.9 Q 365.1 56.434 364.737 56.33 A 0.864 0.864 0 0 0 364.5 56.3 A 0.904 0.904 0 0 0 363.811 56.59 A 1.297 1.297 0 0 0 363.6 56.9 Q 362.7 58.7 361.35 61.5 Q 360 64.3 358.3 67.1 A 34.16 34.16 0 0 1 357.208 68.787 A 28.869 28.869 0 0 1 354.6 72.05 Q 352.6 74.2 350.3 74.8 A 12.419 12.419 0 0 1 349.932 74.868 A 10.396 10.396 0 0 1 349.35 74.95 Q 349.069 74.981 348.729 74.993 A 12.467 12.467 0 0 1 348.3 75 A 16.632 16.632 0 0 1 348.14 74.999 Q 345.804 74.977 343 74.3 Q 341.188 73.863 339.727 73.464 A 67.387 67.387 0 0 1 338.1 73 A 23.762 23.762 0 0 0 338.585 72.544 Q 339.636 71.529 340.688 70.274 A 40.794 40.794 0 0 0 342.7 67.65 A 307.705 307.705 0 0 0 342.988 67.243 A 335.495 335.495 0 0 0 347.35 60.9 A 88.035 88.035 0 0 1 348.531 59.184 A 76.348 76.348 0 0 1 352.15 54.45 A 26.111 26.111 0 0 1 352.222 54.364 Q 353.336 53.034 354.502 52.003 A 15.874 15.874 0 0 1 357.3 50 Q 358.1 49.5 358.95 49.1 A 1.318 1.318 0 0 0 359.533 48.575 Q 359.8 48.129 359.8 47.4 Q 359.8 46.5 359.3 45.9 Q 358.8 45.3 358.1 45.3 A 1.102 1.102 0 0 0 357.811 45.34 Q 357.401 45.452 356.931 45.868 A 5.43 5.43 0 0 0 356.5 46.3 A 2.636 2.636 0 0 1 355.764 46.869 Q 355.317 47.105 354.74 47.212 A 5.721 5.721 0 0 1 353.7 47.3 A 6.126 6.126 0 0 1 352.388 47.156 A 7.223 7.223 0 0 1 350.7 46.55 Q 349.2 45.8 347.65 45.1 Q 346.1 44.4 344.4 44.4 A 14.556 14.556 0 0 0 342.602 44.515 A 18.295 18.295 0 0 0 340.15 45 Q 338.744 45.375 337.298 46.336 A 15.6 15.6 0 0 0 335.55 47.7 A 11.974 11.974 0 0 0 335.443 47.797 Q 333.878 49.229 332.248 51.722 A 41.795 41.795 0 0 0 330.7 54.3 Q 330.1 55.4 328.9 57.85 Q 327.7 60.3 326.5 62.65 A 327.263 327.263 0 0 1 326.098 63.435 Q 325.212 65.159 324.8 65.9 Q 324.603 66.294 324.535 66.601 A 1.396 1.396 0 0 0 324.5 66.9 A 1.292 1.292 0 0 0 324.503 66.983 Q 324.527 67.363 324.784 67.464 A 0.589 0.589 0 0 0 325 67.5 Q 325.7 67.5 326.2 66.7 A 293.992 293.992 0 0 1 326.259 66.585 Q 328.08 63.014 329.534 60.405 A 93.985 93.985 0 0 1 330.8 58.2 A 36.777 36.777 0 0 1 332.025 56.267 Q 333.258 54.459 334.4 53.35 A 13.043 13.043 0 0 1 334.719 53.05 Q 336.264 51.648 337.85 51.15 Q 339.6 50.6 342 50.6 A 17.774 17.774 0 0 1 343.874 50.703 A 22.711 22.711 0 0 1 346.3 51.1 A 1245.781 1245.781 0 0 1 346.937 51.239 Q 348.853 51.656 350.4 52 Q 349.275 53.181 348.087 54.679 A 58.961 58.961 0 0 0 346.2 57.2 Q 344 60.3 341.7 63.55 Q 339.4 66.8 337.25 69.35 A 27.171 27.171 0 0 1 337.069 69.563 Q 335.758 71.086 334.579 71.986 A 8.074 8.074 0 0 1 333.3 72.8 A 4.454 4.454 0 0 1 333.25 72.828 Q 332.713 73.126 331.521 73.607 A 56.541 56.541 0 0 1 330.65 73.95 A 160.108 160.108 0 0 0 330.165 74.138 A 144.497 144.497 0 0 0 326.9 75.45 A 15.762 15.762 0 0 0 326.606 75.576 Q 325.075 76.251 324.8 76.8 A 2.587 2.587 0 0 0 324.401 77.662 A 3.326 3.326 0 0 0 324.3 78.5 A 2.105 2.105 0 0 0 324.325 78.831 Q 324.467 79.726 325.432 79.936 Z" id="9" vector-effect="non-scaling-stroke"/></g></svg></svg>

